<svg xmlns="http://www.w3.org/2000/svg" viewBox="0 0 100 100">
  <path d="M50,10c-16.5,0-30,13.5-30,30c0,16.5,30,50,30,50s30-33.5,30-50C80,23.5,66.5,10,50,10z M50,50c-8.3,0-15-6.7-15-15s6.7-15,15-15s15,6.7,15,15S58.3,50,50,50z" fill="#fff"/>
  <circle cx="50" cy="35" r="5" fill="#000"/>
  <path d="M50,60c-11,0-20,9-20,20s9,20,20,20s20-9,20-20S61,60,50,60z M50,90c-5.5,0-10-4.5-10-10s4.5-10,10-10s10,4.5,10,10S55.5,90,50,90z" fill="#fff"/>
  <line x1="65" y1="85" x2="75" y2="95" stroke="#fff" stroke-width="5"/>
</svg>
